<svg width="254" height="394" viewBox="0 0 254 394" fill="none" xmlns="http://www.w3.org/2000/svg">
<path d="M67.76 56.4098H66.03C66.2 55.5698 66.2 54.8898 66.2 54.0498C66.2 44.5998 58.42 37.0098 48.74 37.0098C42.17 37.0098 36.64 40.5498 33.7 45.6098C31.11 43.7498 28 42.7398 24.71 42.7398C16.59 42.7398 10.02 48.8098 9.5 56.5798C4.15 57.2598 0 61.8098 0 67.2098C0 73.1198 5.01 78.0098 11.06 78.0098H67.93C73.99 78.0098 79 73.1198 79 67.2098C78.83 61.3098 73.81 56.4098 67.76 56.4098Z" fill="white"/>
<path d="M245.18 96.6298H243.82C243.96 95.9498 243.96 95.4098 243.96 94.7298C243.96 87.1298 237.86 81.0098 230.26 81.0098C225.11 81.0098 220.76 83.8598 218.46 87.9398C216.42 86.4498 213.98 85.6298 211.4 85.6298C205.02 85.6298 199.87 90.5198 199.46 96.7698C195.25 97.3098 192 100.98 192 105.33C192 110.08 195.93 114.02 200.68 114.02H245.31C250.06 114.02 253.99 110.08 253.99 105.33C253.86 100.57 249.93 96.6298 245.18 96.6298Z" fill="white"/>
<path d="M151.6 10.89H150.61C150.71 10.42 150.71 10.04 150.71 9.56C150.71 4.26 146.28 0 140.77 0C137.03 0 133.88 1.99 132.2 4.83C130.72 3.79 128.95 3.22 127.08 3.22C122.45 3.22 118.71 6.63 118.41 10.98C115.36 11.36 112.99 13.91 112.99 16.94C112.99 20.25 115.85 23 119.29 23H151.69C155.14 23 157.99 20.26 157.99 16.94C157.9 13.64 155.05 10.89 151.6 10.89Z" fill="white"/>
<path d="M218.59 306.8C219.18 300.91 222.87 296.47 226.83 296.87C230.79 297.28 233.51 302.37 232.92 308.24C232.33 314.13 228.64 318.57 224.68 318.17C220.72 317.77 218 312.67 218.59 306.8Z" fill="#FFE8D7"/>
<path d="M193.37 393.62C193.37 369 190.18 342.63 190.18 342.63C190.18 342.63 129.01 348.78 78.1502 345.87C78.1502 345.87 73.8602 371.31 78.0902 393.62H193.37Z" fill="#D8E0F0"/>
<path d="M85.6401 393.61C93.5501 392.01 100.9 387.48 104.1 381.4C104.21 381.21 104.08 380.98 103.83 380.91C103.58 380.83 103.28 380.92 103.19 381.11C100.13 386.94 93.0201 391.35 85.3901 392.87C85.1201 392.92 84.9601 393.13 85.0301 393.33C85.1101 393.54 85.3801 393.66 85.6401 393.61Z" fill="#6F8BB5"/>
<path d="M171.1 381.4C173.77 387.49 179.89 392.02 186.48 393.61C186.7 393.66 186.92 393.54 186.98 393.34C187.04 393.14 186.91 392.93 186.68 392.88C180.34 391.35 174.41 386.94 171.85 381.12C171.76 380.93 171.52 380.83 171.32 380.92C171.11 380.97 171.01 381.21 171.1 381.4Z" fill="#6F8BB5"/>
<path d="M85 366.86C83.48 369.34 82.54 372.69 82.52 375.73C82.52 376.36 82.56 376.97 82.64 377.56C82.68 377.86 82.96 378.09 83.29 378.05C83.59 378.01 83.82 377.72 83.78 377.4C83.7 376.87 83.66 376.3 83.66 375.74C83.66 372.92 84.55 369.73 85.95 367.46C86.11 367.2 86.03 366.85 85.77 366.69C85.5 366.49 85.16 366.57 85 366.86Z" fill="#6F8BB5"/>
<path d="M98.5402 367.91C97.7702 369.72 97.2002 371.75 97.2002 373.82C97.2002 374.67 97.3002 375.53 97.5202 376.36C97.6002 376.66 97.9102 376.85 98.2102 376.77C98.5102 376.69 98.7002 376.38 98.6202 376.08C98.4202 375.35 98.3402 374.6 98.3402 373.85C98.3402 372 98.8702 370.09 99.6002 368.39C99.7202 368.1 99.6002 367.76 99.3002 367.64C99.0102 367.48 98.6602 367.63 98.5402 367.91Z" fill="#6F8BB5"/>
<path d="M113.67 368.32C113.32 370.15 113.1 372.03 113.1 373.94C113.1 375.56 113.26 377.17 113.67 378.75C113.75 379.05 114.06 379.24 114.36 379.16C114.66 379.08 114.85 378.77 114.77 378.47C114.38 376.99 114.22 375.47 114.22 373.94C114.22 372.13 114.44 370.31 114.77 368.52C114.83 368.22 114.63 367.91 114.32 367.85C114.01 367.81 113.71 368.01 113.67 368.32Z" fill="#6F8BB5"/>
<path d="M131.92 368.3C131.72 369.25 131.63 370.23 131.63 371.18C131.63 373.7 132.16 376.189 132.46 378.529C132.5 378.829 132.78 379.06 133.09 379.02C133.4 378.98 133.62 378.69 133.58 378.39C133.26 375.99 132.75 373.54 132.75 371.18C132.75 370.29 132.83 369.39 133.01 368.52C133.07 368.22 132.89 367.909 132.56 367.849C132.28 367.789 131.98 367.99 131.92 368.3Z" fill="#6F8BB5"/>
<path d="M177.82 362.67C179.87 365.15 181.39 369.03 181.39 372.21C181.39 372.51 181.65 372.779 181.96 372.779C182.27 372.779 182.53 372.52 182.53 372.21C182.53 368.68 180.93 364.639 178.71 361.939C178.51 361.699 178.16 361.66 177.92 361.86C177.66 362.06 177.64 362.43 177.82 362.67Z" fill="#6F8BB5"/>
<path d="M164.46 365.49C165.66 367.44 166.55 369.75 166.55 371.99C166.55 372.32 166.53 372.66 166.49 372.99C166.45 373.29 166.67 373.58 166.98 373.62C167.28 373.66 167.57 373.44 167.61 373.13C167.65 372.74 167.67 372.38 167.67 371.99C167.67 369.45 166.66 366.96 165.42 364.91C165.26 364.65 164.91 364.56 164.65 364.73C164.38 364.89 164.29 365.23 164.46 365.49Z" fill="#6F8BB5"/>
<path d="M149.45 367.79C150.32 370.39 150.95 373.13 150.95 375.83C150.95 376.44 150.91 377.05 150.85 377.64C150.81 377.94 151.03 378.23 151.36 378.27C151.67 378.31 151.95 378.09 151.99 377.76C152.07 377.11 152.09 376.46 152.09 375.83C152.09 372.95 151.42 370.1 150.53 367.42C150.43 367.12 150.1 366.97 149.82 367.06C149.51 367.16 149.35 367.48 149.45 367.79Z" fill="#6F8BB5"/>
<path d="M166.04 100.1C166.04 119.59 166.71 152.81 130.75 152.81C94.7899 152.81 95.4598 119.6 95.4598 100.1C95.4598 80.5996 111.25 64.8096 130.75 64.8096C150.25 64.8196 166.04 80.6096 166.04 100.1Z" fill="#607697"/>
<path d="M54.3601 264.81C48.7201 261.89 43.3601 258.25 38.2001 254.4C36.0701 265.87 34.6101 277.08 33.1201 286.58C30.9701 322.09 57.6901 309.89 59.9001 299.59C62.3601 288.18 65.1001 278.54 67.9201 270.17C63.2701 268.75 58.7001 267.05 54.3601 264.81Z" fill="#FFE8D7"/>
<path d="M68.5901 273.46C79.8001 239.09 91.0001 225.32 90.3901 205.53L86.2701 182.22C53.2001 200.29 41.5401 226.56 36.0801 258.29C45.0001 264.16 58.1401 270.23 68.5901 273.46Z" fill="#6F8BB5"/>
<path d="M111.27 170.13C112.98 173.05 114.32 176.28 116.18 179.06C117.93 181.66 120.02 184.03 121.72 186.67C123.91 190.08 127.1 197.7 132.58 194.28C138.83 190.4 141.98 183.62 146.1 177.79C147.74 175.48 149.35 173.14 150.95 170.79C149.37 169.33 148.39 167.97 148.37 166.91C148.23 162.08 148.37 147.6 148.37 147.6H113.13C113.13 147.6 113.27 162.1 113.13 166.91C113.12 167.79 112.43 168.91 111.27 170.13Z" fill="#FFE8D7"/>
<path d="M179.06 184.44C170.17 178.27 157.8 175.12 156.24 174.15C154.15 172.67 152.42 171.19 151.27 169.85C148.69 172.96 145.97 175.92 143.47 179.13C140.53 182.91 137.52 184.96 132.89 185.1C132.22 185.12 131.49 185.04 130.74 184.88C129.99 185.04 129.26 185.12 128.59 185.1C123.98 184.98 120.96 182.91 118.01 179.13C115.51 175.92 112.81 172.96 110.21 169.85C109.05 171.19 107.33 172.69 105.24 174.15C103.66 175.12 91.2902 178.27 82.4202 184.44C57.6502 201.62 69.0202 254.38 74.2802 277.61C75.9402 284.96 75.9402 292.9 76.4102 300.39C77.1002 311.52 77.5902 322.66 78.0502 333.81C78.2902 339.49 77.0302 347.13 79.4702 352.39C80.7902 355.25 83.9802 356.31 86.7002 357.34C98.2902 361.81 106.64 355.74 119 358.07C130.84 360.3 148.78 362.62 159.08 357.32C164.56 354.5 170.02 353.04 176.22 353.04C179.18 353.04 183.49 352.07 185.21 348.61C186.27 346.48 185.72 341.59 185.76 337.52C185.8 334.03 185.64 330.54 185.58 327.04C185.36 314.84 185.4 302.47 186.11 290.29C186.35 286.09 186.31 281.74 187.23 277.62C192.48 254.38 203.82 201.61 179.06 184.44Z" fill="#6F8BB5"/>
<path d="M130.76 73.2397C114.54 73.2397 99.8999 83.6297 99.8999 97.2797C99.8999 110.94 100.53 125.66 104.31 138.94C109.81 158.35 127.45 160.83 130.76 160.83C134.07 160.83 151.71 158.35 157.23 138.94C161.01 125.66 161.63 110.94 161.63 97.2797C161.62 83.6197 146.98 73.2397 130.76 73.2397Z" fill="#FFE8D7"/>
<path d="M136.59 124.47C136.47 120.23 135.31 115.74 133.46 111.92C133.82 115.68 134.45 119.39 134.76 123.15C134.82 124.49 135.31 127.31 134.27 128.43C133.17 129.59 131.35 130.2 129.92 130.91C131.42 130.99 133.03 130.69 134.39 130.12C136.55 129.18 136.65 126.5 136.59 124.47Z" fill="#FFA361"/>
<path d="M101.75 112.28C101.75 112.28 96.1301 105.64 93.2401 111.45C91.0501 115.9 95.6401 128.99 100.39 128.34C105.14 127.69 105.28 117.12 101.75 112.28Z" fill="#FFE8D7"/>
<path d="M100.65 118.96C100.2 117.07 99.5499 115.18 98.3199 113.74C97.7699 113.09 97.1799 112.5 96.3299 112.24C93.9499 111.53 94.0399 116.16 94.0799 117.28C93.8399 116.22 93.5499 115.15 93.7299 114.01C93.8699 112.87 94.5599 111.55 95.8399 111.35C96.9599 111.15 97.8499 111.8 98.5799 112.39C99.6799 113.28 100.47 114.64 100.96 115.98C101.67 118.03 101.91 120.2 102.18 122.44C101.69 121.69 101.29 120.71 100.64 120.09C99.7099 119.24 98.8699 121.19 98.7099 121.92C98.4699 123.08 98.7499 124.17 99.6799 124.76C98.3799 124.31 97.9299 122.93 98.1599 121.57C98.3499 120.41 99.2499 118.7 100.65 118.96Z" fill="#FFA361"/>
<path d="M159.75 112.28C159.75 112.28 165.37 105.64 168.26 111.45C170.47 115.9 165.86 128.99 161.11 128.34C156.36 127.69 156.22 117.12 159.75 112.28Z" fill="#FFE8D7"/>
<path d="M160.87 118.96C161.32 117.07 161.97 115.18 163.21 113.74C163.74 113.09 164.35 112.5 165.2 112.24C167.58 111.53 167.49 116.16 167.45 117.28C167.71 116.22 167.98 115.15 167.8 114.01C167.66 112.87 166.97 111.55 165.67 111.35C164.57 111.15 163.68 111.8 162.93 112.39C161.83 113.28 161.04 114.64 160.55 115.98C159.82 118.03 159.59 120.2 159.33 122.44C159.82 121.69 160.22 120.71 160.87 120.09C161.8 119.24 162.66 121.19 162.8 121.92C163.04 123.08 162.76 124.17 161.81 124.76C163.11 124.31 163.58 122.93 163.33 121.57C163.14 120.41 162.27 118.7 160.87 118.96Z" fill="#FFA361"/>
<path d="M130.76 139.67C124.89 139.67 118.9 137.54 118.9 137.54C123.49 144.16 127.37 145.21 130.76 145.21C134.15 145.21 138.03 144.17 142.62 137.54C142.59 137.54 136.6 139.67 130.76 139.67Z" fill="#FCBD8F"/>
<path d="M120.87 138.94C120.87 138.94 121.18 139.08 121.68 139.26C121.94 139.36 122.27 139.48 122.64 139.61C123.03 139.73 123.43 139.87 123.9 140C124.35 140.14 124.86 140.28 125.38 140.39C125.91 140.53 126.48 140.59 127.07 140.74C127.66 140.82 128.27 140.92 128.9 140.98C129.53 141.04 130.16 141.1 130.79 141.08C131.11 141.08 131.42 141.1 131.74 141.1C132.07 141.08 132.37 141.06 132.67 141.04C133.3 141.02 133.91 140.92 134.5 140.84C135.09 140.78 135.66 140.64 136.18 140.52C136.44 140.46 136.71 140.42 136.95 140.34C137.19 140.26 137.44 140.18 137.66 140.1C138.11 139.94 138.53 139.84 138.9 139.69C139.27 139.55 139.57 139.41 139.83 139.3C140.36 139.1 140.64 138.98 140.64 138.98C140.64 138.98 140.38 139.14 139.89 139.41C139.65 139.55 139.36 139.71 139.02 139.9C138.68 140.09 138.27 140.25 137.82 140.43C137.6 140.51 137.35 140.61 137.13 140.71C136.89 140.79 136.62 140.85 136.36 140.93C135.81 141.09 135.26 141.28 134.66 141.36C134.05 141.46 133.42 141.6 132.77 141.62C132.44 141.64 132.12 141.66 131.79 141.7C131.47 141.7 131.14 141.7 130.82 141.7C130.17 141.7 129.5 141.64 128.87 141.58C128.22 141.52 127.61 141.4 127 141.3C126.41 141.16 125.82 141.04 125.29 140.85C124.76 140.69 124.26 140.53 123.81 140.36C123.36 140.2 122.96 140.01 122.59 139.85C122.24 139.67 121.92 139.53 121.68 139.4C121.15 139.13 120.87 138.94 120.87 138.94Z" fill="#FFA361"/>
<path d="M117.15 113.83C116.85 113.83 116.58 113.59 116.58 113.26C116.58 112.08 115.63 111.13 114.45 111.13C113.27 111.13 112.32 112.08 112.32 113.26C112.32 113.56 112.08 113.83 111.75 113.83C111.44 113.83 111.18 113.59 111.18 113.26C111.18 111.45 112.64 109.99 114.45 109.99C116.26 109.99 117.72 111.45 117.72 113.26C117.72 113.56 117.46 113.83 117.15 113.83Z" fill="#607697"/>
<path d="M151.08 113.83C150.78 113.83 150.51 113.59 150.51 113.26C150.51 112.08 149.56 111.13 148.38 111.13C147.2 111.13 146.25 112.08 146.25 113.26C146.25 113.56 146.01 113.83 145.68 113.83C145.38 113.83 145.11 113.59 145.11 113.26C145.11 111.45 146.57 109.99 148.38 109.99C150.19 109.99 151.65 111.45 151.65 113.26C151.65 113.56 151.4 113.83 151.08 113.83Z" fill="#607697"/>
<path d="M118.74 112.41C118.74 112.41 118.6 112.33 118.38 112.15C118.16 112.01 117.85 111.68 117.45 111.52C117.27 111.42 117.06 111.32 116.84 111.22C116.62 111.12 116.33 111.1 116.09 111.02C115.6 110.82 115.01 110.88 114.47 110.78L113.62 110.86C113.29 110.88 113.05 110.94 112.83 111.02C112.61 111.12 112.34 111.12 112.12 111.22C111.9 111.34 111.69 111.44 111.49 111.54C111.06 111.7 110.8 111.99 110.58 112.15C110.36 112.31 110.22 112.41 110.22 112.41C110.22 112.41 110.28 112.27 110.4 112C110.56 111.78 110.66 111.31 111.09 111.01C111.45 110.66 111.9 110.24 112.55 110.01C112.87 109.87 113.2 109.73 113.48 109.73L114.47 109.59L115.48 109.73C115.83 109.75 116.13 109.89 116.44 110.03C117.05 110.25 117.52 110.68 117.88 111.05C118.31 111.37 118.37 111.78 118.55 112C118.68 112.24 118.74 112.41 118.74 112.41Z" fill="#607697"/>
<path d="M152.66 112.41C152.66 112.41 152.52 112.33 152.29 112.15C152.07 112.01 151.76 111.68 151.36 111.52C151.18 111.42 150.97 111.32 150.75 111.22C150.53 111.12 150.24 111.1 150.02 111.02C149.53 110.82 148.94 110.88 148.4 110.78L147.55 110.86C147.23 110.88 146.98 110.94 146.76 111.02C146.54 111.12 146.27 111.12 146.05 111.22C145.83 111.34 145.62 111.44 145.42 111.54C144.99 111.7 144.73 111.99 144.51 112.15C144.29 112.31 144.14 112.41 144.14 112.41C144.14 112.41 144.2 112.27 144.32 112C144.48 111.78 144.61 111.31 145.01 111.01C145.37 110.66 145.82 110.24 146.47 110.01C146.79 109.87 147.12 109.73 147.4 109.73L148.39 109.59L149.43 109.73C149.78 109.75 150.08 109.89 150.38 110.03C150.99 110.25 151.46 110.68 151.82 111.05C152.25 111.37 152.31 111.78 152.49 112C152.6 112.24 152.66 112.41 152.66 112.41Z" fill="#607697"/>
<path d="M121.54 101.28C120.38 99.3898 117.85 98.9598 115.73 99.3098C112.22 99.8798 109.19 101.97 107.12 104.85C106.84 105.24 107.2 105.89 107.67 105.52C108.06 105.54 109.27 104.42 109.58 104.22C111.04 103.31 113.36 101.88 115.18 102.03C116.7 101.97 118.08 102.01 119.42 102.66C120.99 103.43 122.6 102.99 121.54 101.28Z" fill="#607697"/>
<path d="M141.31 101.28C142.47 99.3898 145.01 98.9598 147.1 99.3098C150.61 99.8798 153.64 101.97 155.71 104.85C155.99 105.24 155.63 105.89 155.16 105.52C154.79 105.54 153.56 104.42 153.25 104.22C151.79 103.31 149.47 101.88 147.65 102.03C146.13 101.97 144.75 102.01 143.41 102.66C141.86 103.43 140.26 102.99 141.31 101.28Z" fill="#607697"/>
<path d="M115.27 155.77C120.55 159.06 125.65 160.74 130.76 160.74C135.88 160.74 140.97 159.08 146.25 155.77C146.51 155.61 146.6 155.26 146.43 155C146.27 154.74 145.92 154.65 145.66 154.82C140.5 158.03 135.63 159.61 130.78 159.61C125.93 159.61 121.04 158.03 115.9 154.82C115.64 154.66 115.29 154.74 115.13 155C114.97 155.26 115.01 155.61 115.27 155.77Z" fill="#FFA361"/>
<path d="M100.16 110.17C100.16 110.17 114.92 94.8799 119.65 76.6499C119.65 76.6499 117.74 71.5099 113.9 72.0999C106.37 73.2599 94.86 83.7699 99.87 109.6" fill="#607697"/>
<path d="M112.81 165.23C112.81 165.23 106.33 172.3 106.11 173.84L116.51 195.54L130.74 185.06L112.81 165.23Z" fill="#607697"/>
<path d="M148.68 165.23C148.68 165.23 155.16 172.3 155.38 173.84L144.97 195.54L130.74 185.06L148.68 165.23Z" fill="#607697"/>
<path d="M39.7202 256.41C48.5102 261.12 56.9402 266.3 66.2302 269.77C66.5102 269.87 66.8602 269.73 66.9602 269.44C67.0602 269.15 66.9202 268.83 66.6402 268.71C57.4802 265.3 49.1002 260.14 40.2702 255.41C39.9902 255.27 39.6402 255.37 39.5002 255.65C39.3402 255.92 39.4402 256.27 39.7202 256.41Z" fill="#607697"/>
<path d="M43.4398 251.46C43.9498 250.06 44.5198 248.68 45.2498 247.44C45.4098 247.18 45.3098 246.83 45.0498 246.67C44.7898 246.51 44.4398 246.61 44.2798 246.87C43.4898 248.21 42.9198 249.65 42.3898 251.07C42.2898 251.35 42.4298 251.7 42.7398 251.8C43.0098 251.9 43.3398 251.74 43.4398 251.46Z" fill="#607697"/>
<path d="M56.5099 259.03C57.0199 258.2 57.5699 257.36 58.1099 256.57C58.2899 256.31 58.2299 255.96 57.9699 255.78C57.7099 255.6 57.3599 255.66 57.1799 255.92C56.6099 256.73 56.0599 257.58 55.5399 258.44C55.3799 258.7 55.4599 259.05 55.7199 259.21C55.9999 259.37 56.3499 259.29 56.5099 259.03Z" fill="#607697"/>
<path d="M165.07 95.6499C165.07 95.6499 162.13 78.1499 130.68 78.1499C99.23 78.1499 96.2501 95.6499 96.2501 95.6499C96.2501 95.6499 92.9801 103.79 103.97 103.79C114.95 103.79 111.79 96.4599 130.69 96.4599C149.61 96.4599 146.4 103.79 157.39 103.79C168.34 103.8 165.07 95.6499 165.07 95.6499Z" fill="#607697"/>
<path d="M161.74 75.6398C159.02 69.6298 145.58 59.0098 130.65 59.0098C115.75 59.0098 102.29 69.6298 99.5703 75.6398C95.6103 84.3698 94.7803 102.72 94.7803 102.72C104.87 83.9198 130.65 84.9598 130.65 84.9598C130.65 84.9598 156.78 84.2298 166.87 103.05C166.87 103.07 165.7 84.3898 161.74 75.6398Z" fill="#6F8BB5"/>
<path d="M99.8198 90.1799C100.35 85.6299 101.38 80.4799 103.56 76.2099C105.73 71.9499 108.98 68.5999 114.04 67.4799C114.35 67.4199 114.55 67.1099 114.47 66.8099C114.41 66.5099 114.1 66.2999 113.8 66.3799C108.34 67.5799 104.81 71.2499 102.55 75.6999C100.3 80.1699 99.2598 85.4399 98.7098 90.0499C98.6698 90.3499 98.8898 90.6399 99.1998 90.6799C99.5098 90.7199 99.7798 90.4999 99.8198 90.1799Z" fill="#607697"/>
<path d="M160.54 90.0496C159.99 85.4396 158.96 80.1596 156.7 75.6996C154.45 71.2296 150.91 67.5796 145.45 66.3796C145.15 66.3196 144.84 66.4996 144.78 66.8096C144.72 67.1096 144.9 67.4196 145.21 67.4796C150.29 68.5996 153.51 71.9496 155.69 76.2096C157.84 80.4696 158.88 85.6296 159.43 90.1796C159.47 90.4796 159.75 90.7096 160.06 90.6696C160.36 90.6396 160.58 90.3496 160.54 90.0496Z" fill="#607697"/>
<path d="M73.37 262.77C75.99 258.18 78.77 253.65 80.21 248.5C80.29 248.2 80.13 247.89 79.82 247.81C79.52 247.73 79.21 247.91 79.13 248.2C77.75 253.15 75.01 257.62 72.39 262.23C72.23 262.49 72.33 262.84 72.59 263C72.88 263.13 73.22 263.03 73.37 262.77Z" fill="#607697"/>
<path d="M87.0299 351.57C86.9099 350.72 86.8499 349.86 86.8499 349.01C86.8499 344.26 88.6999 339.25 90.5899 334.13C92.4799 329.01 94.4099 323.77 94.4099 318.52C94.4099 318.22 94.1699 317.95 93.8399 317.95C93.5399 317.95 93.2699 318.19 93.2699 318.52C93.2699 323.49 91.4199 328.61 89.5099 333.73C87.6199 338.85 85.7099 343.96 85.6899 349C85.6899 349.91 85.7499 350.83 85.8899 351.72C85.9299 352.02 86.2399 352.25 86.5399 352.19C86.8699 352.18 87.0699 351.87 87.0299 351.57Z" fill="#607697"/>
<path d="M108.53 350.94C111.64 337.9 116.55 328.75 124.75 318.05C129.99 311.23 135.59 304.85 140.42 297.6C146.57 288.34 148.12 278.84 152.09 268.89C152.21 268.61 152.07 268.26 151.77 268.16C151.49 268.04 151.14 268.18 151.04 268.49C147.02 278.58 145.5 287.98 139.49 296.97C134.72 304.14 129.11 310.49 123.86 317.35C115.6 328.11 110.56 337.47 107.44 350.67C107.36 350.97 107.56 351.28 107.87 351.36C108.16 351.43 108.46 351.24 108.53 350.94Z" fill="#607697"/>
<path d="M81.4398 359.71C82.4098 361.46 84.1198 362.53 86.1298 363.16C88.1398 363.79 90.4698 363.99 92.8298 363.99C97.0298 363.99 101.32 363.32 103.81 363.08C108.74 362.59 113.52 362.17 118.27 362.17C122.23 362.17 126.19 362.48 130.21 363.27C135.04 364.24 139.81 364.95 144.56 364.95C149.61 364.95 154.65 364.14 159.64 361.96C163.4 360.32 167.11 358 170.99 357.27C172.27 357.03 173.57 356.98 174.89 356.98C175.4 356.98 175.88 356.98 176.39 356.98C177.67 356.98 178.99 356.94 180.31 356.72C181.85 356.46 183.4 355.91 184.76 355.42C185.04 355.32 185.21 354.99 185.11 354.69C185.01 354.41 184.68 354.24 184.38 354.34C183.02 354.83 181.52 355.33 180.12 355.6C178.9 355.8 177.66 355.84 176.4 355.84C175.89 355.84 175.4 355.84 174.9 355.84C173.56 355.84 172.18 355.88 170.78 356.14C166.62 356.93 162.84 359.33 159.19 360.91C154.38 363.02 149.51 363.79 144.57 363.79C139.94 363.79 135.23 363.1 130.44 362.14C126.32 361.31 122.3 361.02 118.28 361.02C113.45 361.02 108.64 361.45 103.7 361.93C101.16 362.17 96.9198 362.82 92.8398 362.82C90.5498 362.82 88.3098 362.62 86.4898 362.03C84.6398 361.46 83.2398 360.53 82.4698 359.13C82.3298 358.84 81.9798 358.76 81.6998 358.91C81.3798 359.1 81.2798 359.44 81.4398 359.71Z" fill="#6F8BB5"/>
<path d="M221.06 171.16H105.05V244.49H221.06V171.16Z" fill="#FFA361"/>
<path d="M218.4 173.8H107.71V241.81H218.4V173.8Z" fill="#FCBD8F"/>
<path d="M173.72 173.8H152.4V182.23H173.72V173.8Z" fill="#FFA361"/>
<path d="M192.21 197.59H133.92V220.63H192.21V197.59Z" fill="white"/>
<path d="M153.41 202.73C163.2 202.73 172.98 202.73 182.77 202.73C183.07 202.73 183.34 202.49 183.34 202.16C183.34 201.86 183.08 201.59 182.77 201.59C172.98 201.59 163.2 201.59 153.41 201.59C153.1 201.59 152.84 201.83 152.84 202.16C152.85 202.49 153.09 202.73 153.41 202.73Z" fill="#FCBD8F"/>
<path d="M153.41 209.61C163.2 209.61 172.98 209.61 182.77 209.61C183.07 209.61 183.34 209.37 183.34 209.04C183.34 208.74 183.08 208.47 182.77 208.47C172.98 208.47 163.2 208.47 153.41 208.47C153.1 208.47 152.84 208.71 152.84 209.04C152.85 209.36 153.09 209.61 153.41 209.61Z" fill="#FCBD8F"/>
<path d="M143.37 202.73C145.91 202.73 148.44 202.73 150.98 202.73C151.28 202.73 151.55 202.49 151.55 202.16C151.55 201.86 151.31 201.59 150.98 201.59C148.44 201.59 145.9 201.59 143.37 201.59C143.07 201.59 142.8 201.83 142.8 202.16C142.8 202.49 143.04 202.73 143.37 202.73Z" fill="#FCBD8F"/>
<path d="M143.37 209.61C145.91 209.61 148.44 209.61 150.98 209.61C151.28 209.61 151.55 209.37 151.55 209.04C151.55 208.74 151.31 208.47 150.98 208.47C148.44 208.47 145.9 208.47 143.37 208.47C143.07 208.47 142.8 208.71 142.8 209.04C142.8 209.36 143.04 209.61 143.37 209.61Z" fill="#FCBD8F"/>
<path d="M227.05 244.47H99.0601V351.18H227.05V244.47Z" fill="#FFA361"/>
<path d="M224.13 247.41H101.99V348.27H224.13V247.41Z" fill="#FCBD8F"/>
<path d="M174.82 247.41H151.3V256.71H174.81V247.41H174.82Z" fill="#FFA361"/>
<path d="M160.46 277.91H114.45V301.34H160.46V277.91Z" fill="white"/>
<path d="M127.79 283.33C137.58 283.33 147.36 283.33 157.15 283.33C157.46 283.33 157.72 283.07 157.72 282.76C157.72 282.46 157.46 282.19 157.15 282.19C147.37 282.19 137.58 282.19 127.79 282.19C127.49 282.19 127.22 282.43 127.22 282.76C127.22 283.09 127.49 283.33 127.79 283.33Z" fill="#FCBD8F"/>
<path d="M117.74 283.33C120.28 283.33 122.81 283.33 125.35 283.33C125.65 283.33 125.92 283.07 125.92 282.76C125.92 282.46 125.66 282.19 125.35 282.19C122.81 282.19 120.27 282.19 117.74 282.19C117.43 282.19 117.17 282.43 117.17 282.76C117.18 283.09 117.44 283.33 117.74 283.33Z" fill="#FCBD8F"/>
<path d="M127.79 290.17C137.58 290.17 147.36 290.17 157.15 290.17C157.46 290.17 157.72 289.91 157.72 289.6C157.72 289.3 157.46 289.03 157.15 289.03C147.37 289.03 137.58 289.03 127.79 289.03C127.49 289.03 127.22 289.27 127.22 289.6C127.22 289.93 127.49 290.17 127.79 290.17Z" fill="#FCBD8F"/>
<path d="M117.74 290.17C120.28 290.17 122.81 290.17 125.35 290.17C125.65 290.17 125.92 289.91 125.92 289.6C125.92 289.3 125.66 289.03 125.35 289.03C122.81 289.03 120.27 289.03 117.74 289.03C117.43 289.03 117.17 289.27 117.17 289.6C117.18 289.93 117.44 290.17 117.74 290.17Z" fill="#FCBD8F"/>
<path d="M220.4 251.6H195.77V261.83H220.4V251.6Z" fill="white"/>
<path d="M146.25 353.41C145.68 353.11 144.5 353.29 143.9 353.25C140.86 353.07 137.83 352.8 134.89 351.99C135.68 351.34 136.03 351.5 137 351.64C137.87 351.76 138.75 351.9 139.62 352.03C140.92 352.19 142.32 352.33 143.62 352.23C144.7 352.15 145.75 352.09 146.83 352.03C147.74 351.97 148.66 351.85 149.59 351.73C150.4 351.61 152.39 351.75 152.98 351.02C154.18 349.5 151.36 349.62 150.77 349.62C149.55 349.62 148.33 349.68 147.14 349.62C145.84 349.54 144.2 349.66 142.96 349.32C141.52 349.12 140.12 348.71 138.72 348.33C137.83 348.07 137.38 348.27 137.56 347.33C139.22 347.59 140.87 347.86 142.55 347.94C145.84 348.1 148.99 347.68 152.13 346.8C152.56 346.66 153.1 346.56 153.47 346.31C154.06 346.09 154.22 345.29 153.77 344.87C153.38 344.48 152.9 344.67 152.43 344.79C150.34 345.36 147.92 345.52 145.63 345.46C144.03 345.42 142.44 345.15 140.86 344.85C139.76 344.65 137.63 344.5 137.31 343.37C140.42 343.8 143.69 343.49 146.73 342.84C148.21 342.52 150.55 342.39 151.83 341.52C152.84 341.17 152.4 339.59 151.34 339.84C150.81 339.82 150.14 340.12 149.63 340.25C146.52 340.61 143.42 341 140.29 340.78C135.76 340.43 132.07 338.1 128.05 336.33C130.49 335.78 132.98 336.69 135.46 336.04C136.62 335.78 137.67 335.15 138.71 334.56C139.58 334.05 139.24 332.61 138.14 332.88C137.15 332.88 136.17 333.57 135.12 333.49C134.49 333.49 133.9 333.45 133.29 333.39C130.22 332.72 128.13 332.54 125.07 333.27C122.04 333.98 119.28 335 116.3 334.14C115.53 333.92 114.68 333.57 113.76 333.16C104.85 328.98 74.8203 305.73 66.3703 300.96C57.2903 295.82 47.6503 293.83 47.6503 293.83C47.6503 293.83 28.5502 290.09 35.8702 304.45C42.8103 318.05 92.2903 337.46 105.73 344.04C107.46 345 109.12 345.75 109.79 346.07C114.78 348.53 120.18 351.11 125.5 352.77C130.15 354.23 135.06 355.04 139.92 355.35C141.85 355.47 143.84 355.29 145.77 355.15C146.51 354.98 147.22 353.96 146.25 353.41ZM152.87 351.02C152.75 351.18 152.55 351.28 152.34 351.31L152.87 351.02Z" fill="#FFE8D7"/>
<path d="M228.51 309.99C229.79 310.13 230.72 311.27 230.6 312.55C230.48 313.83 229.32 314.78 228.04 314.64L219.57 313.79C218.29 313.67 217.36 312.51 217.48 311.23C217.6 309.95 218.76 309.02 220.04 309.14L228.51 309.99Z" fill="#FFE8D7"/>
<path d="M228.98 305.34C230.28 305.46 231.21 306.62 231.07 307.9C230.95 309.18 229.79 310.11 228.51 309.99L220.04 309.14C218.76 309.02 217.81 307.86 217.95 306.58C218.07 305.3 219.23 304.37 220.51 304.49L228.98 305.34Z" fill="#FFE8D7"/>
<path d="M229.45 300.69C230.73 300.81 231.68 301.97 231.54 303.25C231.4 304.53 230.26 305.46 228.98 305.34L220.51 304.49C219.23 304.37 218.3 303.21 218.42 301.93C218.54 300.65 219.7 299.7 220.98 299.84L229.45 300.69Z" fill="#FFE8D7"/>
<path d="M229.91 296.02C231.19 296.14 232.14 297.3 232 298.58C231.88 299.86 230.72 300.81 229.44 300.67L220.97 299.82C219.69 299.7 218.76 298.54 218.88 297.26C219 295.98 220.16 295.03 221.44 295.17L229.91 296.02Z" fill="#FFE8D7"/>
</svg>
